<svg xmlns="http://www.w3.org/2000/svg" version="1.1" xmlns:xlink="http://www.w3.org/1999/xlink" xmlns:svgjs="http://svgjs.com/svgjs" viewBox="0 0 140 140" width="140" height="140"><g transform="matrix(5.833333333333333,0,0,5.833333333333333,0,0)"><path d="M1.706,22.292a4.1,4.1,0,0,0,5.307.418L21,12.547A6.788,6.788,0,1,0,11.452,3L1.289,16.987A4.1,4.1,0,0,0,1.706,22.292Z" fill="none" stroke="#000000" stroke-linecap="round" stroke-linejoin="round"></path><path d="M2.495 19.005 A2.500 2.500 0 1 0 7.495 19.005 A2.500 2.500 0 1 0 2.495 19.005 Z" fill="none" stroke="#000000" stroke-linecap="round" stroke-linejoin="round"></path><path d="M13.497 7.005 A3.498 3.498 0 1 0 20.493 7.005 A3.498 3.498 0 1 0 13.497 7.005 Z" fill="none" stroke="#000000" stroke-linecap="round" stroke-linejoin="round"></path><path d="M17,6.755a.25.25,0,1,1-.25.25.249.249,0,0,1,.25-.25" fill="none" stroke="#000000" stroke-linecap="round" stroke-linejoin="round"></path><path d="M5,18.755a.25.25,0,1,1-.25.25.249.249,0,0,1,.25-.25" fill="none" stroke="#000000" stroke-linecap="round" stroke-linejoin="round"></path></g></svg>