<svg xmlns="http://www.w3.org/2000/svg" version="1.1" xmlns:xlink="http://www.w3.org/1999/xlink" xmlns:svgjs="http://svgjs.com/svgjs" viewBox="0 0 140 140"><g transform="matrix(5.833333333333333,0,0,5.833333333333333,0,0)"><path d="M0.500 0.500 L23.500 0.500 L23.500 23.500 L0.500 23.500 Z" fill="none" stroke="currentColor" stroke-linecap="round" stroke-linejoin="round"/><path d="M14.5 3.5L20.499 3.5" fill="none" stroke="currentColor" stroke-linecap="round" stroke-linejoin="round"/><path d="M14.5 5.5L20.499 5.5" fill="none" stroke="currentColor" stroke-linecap="round" stroke-linejoin="round"/><path d="M14.5 7.5L20.499 7.5" fill="none" stroke="currentColor" stroke-linecap="round" stroke-linejoin="round"/><path d="M5.5 12.5H11.5V18.5H5.5z" fill="none" stroke="currentColor" stroke-linecap="round" stroke-linejoin="round"/><path d="M6.5 12.5L6.5 10.5" fill="none" stroke="currentColor" stroke-linecap="round" stroke-linejoin="round"/><path d="M8.5 12.5L8.5 10.5" fill="none" stroke="currentColor" stroke-linecap="round" stroke-linejoin="round"/><path d="M8.5 20.5L8.5 18.5" fill="none" stroke="currentColor" stroke-linecap="round" stroke-linejoin="round"/><path d="M10.5 12.5L10.5 10.5" fill="none" stroke="currentColor" stroke-linecap="round" stroke-linejoin="round"/><path d="M6.5 20.5L6.5 18.5" fill="none" stroke="currentColor" stroke-linecap="round" stroke-linejoin="round"/><path d="M10.5 20.5L10.5 18.5" fill="none" stroke="currentColor" stroke-linecap="round" stroke-linejoin="round"/><path d="M11.5 13.5L13.5 13.5" fill="none" stroke="currentColor" stroke-linecap="round" stroke-linejoin="round"/><path d="M11.5 15.5L13.5 15.5" fill="none" stroke="currentColor" stroke-linecap="round" stroke-linejoin="round"/><path d="M11.5 17.5L13.5 17.5" fill="none" stroke="currentColor" stroke-linecap="round" stroke-linejoin="round"/><path d="M3.5 13.5L5.5 13.5" fill="none" stroke="currentColor" stroke-linecap="round" stroke-linejoin="round"/><path d="M3.5 15.5L5.5 15.5" fill="none" stroke="currentColor" stroke-linecap="round" stroke-linejoin="round"/><path d="M3.5 17.5L5.5 17.5" fill="none" stroke="currentColor" stroke-linecap="round" stroke-linejoin="round"/><path d="M16.749,11.5a.25.25,0,1,1-.25.25.25.25,0,0,1,.25-.25" fill="none" stroke="currentColor" stroke-linecap="round" stroke-linejoin="round"/><path d="M16.749,15a.25.25,0,1,1-.25.25.25.25,0,0,1,.25-.25" fill="none" stroke="currentColor" stroke-linecap="round" stroke-linejoin="round"/><path d="M16.749,18.5a.25.25,0,1,1-.25.25.25.25,0,0,1,.25-.25" fill="none" stroke="currentColor" stroke-linecap="round" stroke-linejoin="round"/><path d="M20.5 10.5L20.5 20.5" fill="none" stroke="currentColor" stroke-linecap="round" stroke-linejoin="round"/><path d="M3.500 6.000 A1.500 1.500 0 1 0 6.500 6.000 A1.500 1.500 0 1 0 3.500 6.000 Z" fill="none" stroke="currentColor" stroke-linecap="round" stroke-linejoin="round"/><path d="M8.500 6.000 A1.500 1.500 0 1 0 11.500 6.000 A1.500 1.500 0 1 0 8.500 6.000 Z" fill="none" stroke="currentColor" stroke-linecap="round" stroke-linejoin="round"/></g></svg>